<svg xmlns="http://www.w3.org/2000/svg" width="1em" height="1em" viewBox="0 0 24 24"><path d="M23.4 8.016c-0.336-0.336-0.768-0.504-1.248-0.504h-4.128l-5.304-7.104c-0.144-0.216-0.408-0.336-0.672-0.336s-0.504 0.12-0.624 0.336l-5.328 7.104h-4.248c-0.936 0-1.704 0.768-1.704 1.704v1.848c0 0.936 0.768 1.704 1.704 1.704h0.24l1.464 8.928c0.216 1.272 1.296 2.208 2.592 2.208h11.688c1.296 0 2.4-0.936 2.592-2.208l1.464-8.928h0.24c0.936 0 1.704-0.768 1.704-1.704v-1.848c0.072-0.432-0.096-0.888-0.432-1.2zM20.424 12.792l-1.464 8.64c-0.096 0.504-0.528 0.888-1.032 0.888h-11.712c-0.504 0-0.96-0.384-1.032-0.888l-1.464-8.664h16.704zM8.088 7.512l3.96-5.304 3.984 5.304h-7.944zM3.84 10.152c0 0.432 0.24 0.816 0.576 1.056h-2.568c-0.048 0-0.144-0.072-0.144-0.144v-1.848c0-0.048 0.048-0.12 0.144-0.12h2.568c-0.336 0.216-0.576 0.624-0.576 1.056zM6.336 9.816l0.552-0.744h10.32l0.552 0.744c-0.024 0.096-0.048 0.216-0.048 0.336 0 0.432 0.216 0.816 0.576 1.056h-12.48c0.336-0.24 0.576-0.624 0.576-1.056 0-0.12-0.024-0.216-0.048-0.336zM20.28 10.152c0-0.432-0.24-0.816-0.576-1.056h2.568c0.048 0 0.144 0.072 0.144 0.144v1.824c0 0.048-0.072 0.144-0.144 0.144h-2.568c0.336-0.24 0.576-0.624 0.576-1.056zM15.768 22.080c0.432 0 0.792-0.36 0.792-0.792v-7.44c0-0.432-0.36-0.792-0.792-0.792s-0.792 0.36-0.792 0.792v7.416c0 0.456 0.36 0.816 0.792 0.816zM8.376 22.080c0.432 0 0.792-0.36 0.792-0.792v-7.44c0-0.432-0.36-0.792-0.792-0.792s-0.792 0.36-0.792 0.792v7.416c0 0.456 0.36 0.816 0.792 0.816zM12.072 22.080c0.432 0 0.792-0.36 0.792-0.792v-7.44c0-0.432-0.36-0.792-0.792-0.792s-0.792 0.36-0.792 0.792v7.416c0 0.456 0.36 0.816 0.792 0.816z"></path></svg>