<svg xmlns="http://www.w3.org/2000/svg" width="1em" height="1em" viewBox="0 0 24 24"><path d="M23.928 7.656c-0.264-3.528-3.264-6.36-6.792-6.456-1.872-0.072-3.768 0.672-5.136 1.992-1.392-1.344-3.24-2.064-5.136-1.992-3.528 0.096-6.528 2.928-6.792 6.456-0.024 0.288-0.024 0.624-0.024 0.912 0.048 1.272 0.6 2.544 1.512 3.576l9.168 10.152c0.312 0.36 0.792 0.552 1.272 0.552 0.456 0 0.936-0.192 1.296-0.552l9.144-10.152c0.912-1.008 1.44-2.256 1.512-3.576 0-0.312 0-0.624-0.024-0.912zM21.96 8.448c-0.048 0.864-0.408 1.68-1.008 2.328l-8.952 9.96-8.976-9.96c-0.6-0.672-0.96-1.488-1.008-2.304 0-0.24 0-0.456 0.024-0.672 0.192-2.52 2.328-4.56 4.848-4.632h0.168c1.632 0 3.168 0.792 4.104 2.112 0.192 0.264 0.48 0.408 0.816 0.408s0.624-0.144 0.816-0.408c0.984-1.368 2.592-2.16 4.272-2.112 2.52 0.096 4.68 2.112 4.896 4.632 0 0.216 0 0.432 0 0.648z"></path></svg> 